<svg width="1600" height="540" viewBox="0 0 1600 540" fill="none" xmlns="http://www.w3.org/2000/svg">
  <g stroke="#515663" stroke-width="4" stroke-linecap="round" stroke-linejoin="round" opacity="0.9">
    <path d="M22 500H1578"/>
    <path d="M272 494C268 463 280 435 304 412C340 378 385 362 446 362C500 362 549 372 588 400C617 420 633 447 634 478"/>
    <path d="M258 418C261 362 269 319 279 286C292 242 329 223 402 218C470 214 521 214 563 228C608 243 641 277 666 322"/>
    <path d="M667 323C680 309 692 301 705 301"/>
    <path d="M698 205C678 196 664 185 662 168C660 152 670 138 694 124C734 101 776 95 833 102C887 108 930 122 954 148C968 163 970 178 960 192C951 204 954 213 971 224"/>
    <path d="M739 352C716 326 703 299 700 270C696 239 702 214 719 195C733 179 752 172 778 178C806 184 823 200 835 228"/>
    <path d="M834 229C860 215 888 215 917 228"/>
    <path d="M915 228C926 201 943 184 971 176C998 169 1023 176 1042 198C1065 226 1073 258 1067 296C1061 333 1046 363 1024 385"/>
    <path d="M699 369C676 359 664 343 662 322C661 307 668 297 683 291C697 285 710 286 723 296"/>
    <path d="M1025 385C1049 378 1066 363 1075 340C1082 321 1079 308 1067 301C1054 294 1041 295 1029 305"/>
    <path d="M847 390C826 391 809 384 795 370C781 355 776 338 780 317"/>
    <path d="M780 316C785 295 798 279 820 266C846 250 874 247 905 256C939 267 963 288 973 322"/>
    <path d="M558 500C566 464 581 435 603 414C632 386 667 373 709 373C748 373 784 384 813 407C840 430 855 461 860 500"/>
    <path d="M760 433C742 438 725 436 710 427C697 418 690 405 690 388"/>
    <path d="M860 500C878 472 897 455 921 448C947 440 975 444 1005 463C1029 478 1047 491 1058 500"/>
    <path d="M1006 463C998 429 998 395 1009 359C1020 321 1043 295 1077 283"/>
    <path d="M1078 283C1115 270 1152 276 1188 299C1227 325 1256 362 1272 409C1284 444 1293 474 1298 500"/>
    <path d="M1160 500C1149 470 1138 448 1126 434C1112 417 1095 409 1076 409C1056 409 1038 417 1022 434"/>
    <path d="M1296 500C1310 470 1325 445 1344 425C1368 400 1397 388 1431 390C1463 392 1488 405 1508 427C1522 443 1534 467 1542 500"/>
    <path d="M1261 337C1242 352 1222 362 1203 365C1180 368 1158 361 1138 345C1118 328 1105 307 1098 282C1093 258 1098 233 1113 210C1130 185 1152 170 1179 165C1211 159 1243 166 1275 184"/>
    <path d="M1276 184C1308 203 1333 232 1352 271C1369 306 1385 334 1402 353C1422 376 1447 389 1477 391"/>
    <path d="M469 500C469 471 472 443 478 414C486 372 500 344 519 329C536 316 555 314 575 323"/>
    <path d="M478 414C460 402 438 399 411 406C381 413 349 430 314 458C293 475 274 489 258 500"/>
    <path d="M640 499C646 478 651 457 654 434C657 409 665 393 679 388C692 384 704 389 714 403"/>
    <path d="M875 499C872 476 874 458 882 444C891 429 904 423 922 426"/>
    <path d="M922 426C946 430 966 436 983 447"/>
  </g>
</svg>
